<?xml version="1.0" encoding="UTF-8" standalone="no"?>
<!-- Created with Inkscape (http://www.inkscape.org/) -->

<svg
   xmlns:dc="http://purl.org/dc/elements/1.1/"
   xmlns:cc="http://creativecommons.org/ns#"
   xmlns:rdf="http://www.w3.org/1999/02/22-rdf-syntax-ns#"
   xmlns:svg="http://www.w3.org/2000/svg"
   xmlns="http://www.w3.org/2000/svg"
   xmlns:sodipodi="http://sodipodi.sourceforge.net/DTD/sodipodi-0.dtd"
   xmlns:inkscape="http://www.inkscape.org/namespaces/inkscape"
   width="357.94943mm"
   height="257.09793mm"
   viewBox="0 0 357.94943 257.09793"
   version="1.1"
   id="svg8"
   inkscape:version="0.92.4 5da689c313, 2019-01-14"
   sodipodi:docname="RMLUG-logo.svg">
  <defs
     id="defs2" />
  <sodipodi:namedview
     id="base"
     pagecolor="#ffffff"
     bordercolor="#666666"
     borderopacity="1.0"
     inkscape:pageopacity="0.0"
     inkscape:pageshadow="2"
     inkscape:zoom="0.7"
     inkscape:cx="714.87589"
     inkscape:cy="641.71086"
     inkscape:document-units="mm"
     inkscape:current-layer="layer1"
     showgrid="false"
     showguides="false"
     inkscape:guide-bbox="true"
     inkscape:snap-center="true"
     inkscape:object-paths="true"
     inkscape:snap-intersection-paths="true"
     fit-margin-top="50"
     fit-margin-left="50"
     fit-margin-right="50"
     fit-margin-bottom="50"
     inkscape:window-width="2560"
     inkscape:window-height="1376"
     inkscape:window-x="0"
     inkscape:window-y="27"
     inkscape:window-maximized="1">
    <sodipodi:guide
       position="179.01965,175.09783"
       orientation="1,0"
       id="guide888"
       inkscape:locked="false" />
    <sodipodi:guide
       position="179.01965,143.09772"
       orientation="0,1"
       id="guide890"
       inkscape:locked="false" />
    <sodipodi:guide
       position="179.02142,47.097719"
       orientation="0,1"
       id="guide892"
       inkscape:locked="false"
       inkscape:label=""
       inkscape:color="rgb(0,0,255)" />
    <sodipodi:guide
       position="179.01965,47.097719"
       orientation="-0.8480481,0.52991926"
       id="guide896"
       inkscape:locked="false"
       inkscape:label=""
       inkscape:color="rgb(0,0,255)" />
    <sodipodi:guide
       position="179.01965,175.09783"
       orientation="0,1"
       id="guide900"
       inkscape:locked="false" />
    <sodipodi:guide
       position="179.01965,47.097719"
       orientation="-0.8480481,-0.52991926"
       id="guide906"
       inkscape:locked="false"
       inkscape:label=""
       inkscape:color="rgb(0,0,255)" />
    <sodipodi:guide
       position="99.036308,175.09783"
       orientation="-0.8480481,0.52991926"
       id="guide908"
       inkscape:locked="false"
       inkscape:label=""
       inkscape:color="rgb(0,0,255)" />
    <sodipodi:guide
       position="259.00262,175.09783"
       orientation="-0.8480481,-0.52991926"
       id="guide910"
       inkscape:locked="false"
       inkscape:label=""
       inkscape:color="rgb(0,0,255)" />
    <sodipodi:guide
       position="179.01965,18.579744"
       orientation="0,1"
       id="guide914"
       inkscape:locked="false" />
  </sodipodi:namedview>
  <metadata
     id="metadata5">
    <rdf:RDF>
      <cc:Work
         rdf:about="">
        <dc:format>image/svg+xml</dc:format>
        <dc:type
           rdf:resource="http://purl.org/dc/dcmitype/StillImage" />
        <dc:title></dc:title>
      </cc:Work>
    </rdf:RDF>
  </metadata>
  <g
     inkscape:label="Layer 1"
     inkscape:groupmode="layer"
     id="layer1"
     transform="translate(74.019625,-66.499886)">
    <g
       id="g886"
       transform="translate(16.132816,21.884474)"
       style="fill:#30c5ff;fill-opacity:1">
      <path
         id="path815"
         transform="scale(0.26458333)"
         d="m 335.875,357.60156 a 120.94488,120.94488 0 0 0 -10.30469,0.51563 120.94488,120.94488 0 0 0 -6.01758,0.73047 120.94488,120.94488 0 0 0 -5.94726,0.89843 120.94488,120.94488 0 0 0 -5.92188,1.33008 120.94488,120.94488 0 0 0 -5.83593,1.49024 120.94488,120.94488 0 0 0 -5.71289,1.89843 120.94488,120.94488 0 0 0 -5.70704,2.08204 120.94488,120.94488 0 0 0 -5.50195,2.46289 120.94488,120.94488 0 0 0 -5.43359,2.62304 120.94488,120.94488 0 0 0 -5.26758,3.02149 120.94488,120.94488 0 0 0 -5.13281,3.14843 120.94488,120.94488 0 0 0 -4.89063,3.4961 120.94488,120.94488 0 0 0 -4.84765,3.6875 120.94488,120.94488 0 0 0 -4.50782,3.95898 120.94488,120.94488 0 0 0 -4.43554,4.13477 120.94488,120.94488 0 0 0 -4.13477,4.43554 120.94488,120.94488 0 0 0 -3.95898,4.50782 120.94488,120.94488 0 0 0 -3.6875,4.84765 120.94488,120.94488 0 0 0 -3.4961,4.89063 120.94488,120.94488 0 0 0 -3.14843,5.13281 120.94488,120.94488 0 0 0 -3.02149,5.26758 120.94488,120.94488 0 0 0 -2.62305,5.43359 120.94488,120.94488 0 0 0 -2.46289,5.50196 120.94488,120.94488 0 0 0 -2.08203,5.70703 120.94488,120.94488 0 0 0 -1.89844,5.71289 120.94488,120.94488 0 0 0 -1.49023,5.83594 120.94488,120.94488 0 0 0 -1.33008,5.92187 120.94488,120.94488 0 0 0 -0.89844,5.94727 120.94488,120.94488 0 0 0 -0.73046,6.01757 120.94488,120.94488 0 0 0 -0.51563,10.30665 120.94488,120.94488 0 0 0 0.51563,10.30273 120.94488,120.94488 0 0 0 0.73046,6.0293 120.94488,120.94488 0 0 0 0.89844,5.9375 120.94488,120.94488 0 0 0 1.32227,5.89648 120.94488,120.94488 0 0 0 1.50195,5.87695 120.94488,120.94488 0 0 0 1.89258,5.69922 120.94488,120.94488 0 0 0 2.08203,5.69922 120.94488,120.94488 0 0 0 2.45898,5.5 120.94488,120.94488 0 0 0 2.63477,5.45313 120.94488,120.94488 0 0 0 3.00391,5.23632 120.94488,120.94488 0 0 0 3.16211,5.15625 120.94488,120.94488 0 0 0 3.50585,4.9043 120.94488,120.94488 0 0 0 3.66602,4.82031 120.94488,120.94488 0 0 0 3.97656,4.52735 120.94488,120.94488 0 0 0 4.12696,4.42968 120.94488,120.94488 0 0 0 4.41406,4.11329 120.94488,120.94488 0 0 0 4.54101,3.99023 120.94488,120.94488 0 0 0 4.80469,3.65234 120.94488,120.94488 0 0 0 4.93164,3.5254 120.94488,120.94488 0 0 0 5.125,3.14257 120.94488,120.94488 0 0 0 5.25391,3.01367 120.94488,120.94488 0 0 0 5.47265,2.64454 120.94488,120.94488 0 0 0 5.4629,2.44336 120.94488,120.94488 0 0 0 5.71679,2.08789 120.94488,120.94488 0 0 0 5.7168,1.89843 120.94488,120.94488 0 0 0 5.85937,1.4961 120.94488,120.94488 0 0 0 5.87696,1.32031 120.94488,120.94488 0 0 0 5.98047,0.9043 120.94488,120.94488 0 0 0 6.00586,0.72851 120.94488,120.94488 0 0 0 10.29882,0.51563 120.94488,120.94488 0 0 0 0.006,0 120.94488,120.94488 0 0 0 0.004,0 120.94488,120.94488 0 0 0 10.29883,-0.51563 120.94488,120.94488 0 0 0 6.00586,-0.72851 120.94488,120.94488 0 0 0 5.98047,-0.9043 120.94488,120.94488 0 0 0 5.87695,-1.32031 120.94488,120.94488 0 0 0 5.85937,-1.4961 120.94488,120.94488 0 0 0 5.7168,-1.89843 120.94488,120.94488 0 0 0 5.7168,-2.08789 120.94488,120.94488 0 0 0 5.46289,-2.44336 120.94488,120.94488 0 0 0 5.47265,-2.64454 120.94488,120.94488 0 0 0 5.25391,-3.01367 120.94488,120.94488 0 0 0 5.125,-3.14257 120.94488,120.94488 0 0 0 4.93164,-3.5254 120.94488,120.94488 0 0 0 4.80469,-3.65234 120.94488,120.94488 0 0 0 4.54101,-3.99023 120.94488,120.94488 0 0 0 4.41407,-4.11329 120.94488,120.94488 0 0 0 4.12695,-4.42968 120.94488,120.94488 0 0 0 3.97656,-4.52735 120.94488,120.94488 0 0 0 3.66602,-4.82031 120.94488,120.94488 0 0 0 3.50586,-4.9043 120.94488,120.94488 0 0 0 3.15234,-5.13867 120.94488,120.94488 0 0 0 3.02344,-5.27343 120.94488,120.94488 0 0 0 2.60742,-5.39844 120.94488,120.94488 0 0 0 2.47852,-5.53906 120.94488,120.94488 0 0 0 2.08007,-5.69532 120.94488,120.94488 0 0 0 1.89258,-5.69922 120.94488,120.94488 0 0 0 1.50196,-5.87695 120.94488,120.94488 0 0 0 1.32226,-5.89648 120.94488,120.94488 0 0 0 0.89844,-5.9375 120.94488,120.94488 0 0 0 0.73047,-6.0293 120.94488,120.94488 0 0 0 0.51562,-10.30273 120.94488,120.94488 0 0 0 -0.51562,-10.30665 120.94488,120.94488 0 0 0 -0.73047,-6.01757 120.94488,120.94488 0 0 0 -0.89844,-5.94727 120.94488,120.94488 0 0 0 -1.33008,-5.92187 120.94488,120.94488 0 0 0 -1.49023,-5.83594 120.94488,120.94488 0 0 0 -1.89844,-5.71289 120.94488,120.94488 0 0 0 -2.08203,-5.70703 120.94488,120.94488 0 0 0 -2.46289,-5.50196 120.94488,120.94488 0 0 0 -2.62305,-5.43359 120.94488,120.94488 0 0 0 -3.02148,-5.26758 120.94488,120.94488 0 0 0 -3.14844,-5.13281 120.94488,120.94488 0 0 0 -3.49609,-4.89063 120.94488,120.94488 0 0 0 -3.6875,-4.84765 120.94488,120.94488 0 0 0 -3.95899,-4.50782 120.94488,120.94488 0 0 0 -4.13476,-4.43554 120.94488,120.94488 0 0 0 -4.43555,-4.13477 120.94488,120.94488 0 0 0 -4.50781,-3.95898 120.94488,120.94488 0 0 0 -4.84766,-3.6875 120.94488,120.94488 0 0 0 -4.89062,-3.4961 120.94488,120.94488 0 0 0 -5.13282,-3.14843 120.94488,120.94488 0 0 0 -5.26757,-3.02149 120.94488,120.94488 0 0 0 -5.4336,-2.62304 120.94488,120.94488 0 0 0 -5.50195,-2.46289 120.94488,120.94488 0 0 0 -5.70703,-2.08204 120.94488,120.94488 0 0 0 -5.71289,-1.89843 120.94488,120.94488 0 0 0 -5.83594,-1.49024 120.94488,120.94488 0 0 0 -5.92188,-1.33008 120.94488,120.94488 0 0 0 -5.94726,-0.89843 120.94488,120.94488 0 0 0 -6.01758,-0.73047 120.94488,120.94488 0 0 0 -10.30469,-0.51563 120.94488,120.94488 0 0 0 -0.002,0 z m -52.91211,52.91406 a 45.354326,68.031491 0 0 1 3.86719,0.29102 45.354331,68.031492 0 0 1 2.25781,0.41016 45.354326,68.031491 0 0 1 2.2207,0.5039 45.354331,68.031492 0 0 1 2.22266,0.74805 45.354326,68.031491 0 0 1 2.19922,0.8418 45.354331,68.031492 0 0 1 2.12695,1.06054 45.354326,68.031491 0 0 1 2.15039,1.17774 45.354331,68.031492 0 0 1 2.04883,1.375 45.354326,68.031491 0 0 1 2.05664,1.49023 45.354331,68.031492 0 0 1 1.97461,1.69922 45.354326,68.031491 0 0 1 1.9082,1.75586 45.354331,68.031492 0 0 1 1.87891,2.01367 45.354326,68.031491 0 0 1 1.76562,2.01563 45.354331,68.031492 0 0 1 1.73243,2.28125 45.354326,68.031491 0 0 1 1.63672,2.28906 45.354331,68.031492 0 0 1 1.55859,2.50781 45.354326,68.031491 0 0 1 1.47852,2.52539 45.354331,68.031492 0 0 1 1.37695,2.71875 45.354326,68.031491 0 0 1 1.31836,2.76368 45.354331,68.031492 0 0 1 1.18945,2.9121 45.354326,68.031491 0 0 1 1.11524,2.91602 45.354331,68.031492 0 0 1 0.99609,3.08984 45.354326,68.031491 0 0 1 0.92187,3.08789 45.354331,68.031492 0 0 1 0.77344,3.17774 45.354326,68.031491 0 0 1 0.7168,3.24023 45.354331,68.031492 0 0 1 0.56054,3.29297 45.354326,68.031491 0 0 1 0.4961,3.3125 45.354331,68.031492 0 0 1 0.33789,3.36133 45.354326,68.031491 0 0 1 0.27344,3.37109 45.354331,68.031492 0 0 1 0.19336,5.80079 h 7.56054 7.5586 a 45.35433,68.031491 0 0 1 0.19336,-5.80079 45.354327,68.031492 0 0 1 0.27343,-3.37109 45.35433,68.031491 0 0 1 0.33789,-3.36133 45.354327,68.031492 0 0 1 0.4961,-3.3125 45.35433,68.031491 0 0 1 0.56055,-3.29297 45.354327,68.031492 0 0 1 0.71679,-3.24023 45.35433,68.031491 0 0 1 0.77344,-3.17774 45.354327,68.031492 0 0 1 0.92187,-3.08789 45.35433,68.031491 0 0 1 0.9961,-3.08984 45.354327,68.031492 0 0 1 1.11523,-2.91602 45.35433,68.031491 0 0 1 1.18946,-2.9121 45.354327,68.031492 0 0 1 1.31835,-2.76368 45.35433,68.031491 0 0 1 1.37696,-2.71875 45.354327,68.031492 0 0 1 1.47851,-2.52539 45.35433,68.031491 0 0 1 1.5586,-2.50781 45.354327,68.031492 0 0 1 1.63672,-2.28906 45.35433,68.031491 0 0 1 1.73242,-2.28125 45.354327,68.031492 0 0 1 1.76562,-2.01563 45.35433,68.031491 0 0 1 1.87891,-2.01367 45.354327,68.031492 0 0 1 1.9082,-1.75586 45.35433,68.031491 0 0 1 1.97461,-1.69922 45.354327,68.031492 0 0 1 2.05664,-1.49023 45.35433,68.031491 0 0 1 2.04883,-1.375 45.354327,68.031492 0 0 1 2.15039,-1.17774 45.35433,68.031491 0 0 1 2.12695,-1.06054 45.354327,68.031492 0 0 1 2.19922,-0.8418 45.35433,68.031491 0 0 1 2.22266,-0.74805 45.354327,68.031492 0 0 1 2.2207,-0.5039 45.35433,68.031491 0 0 1 2.25782,-0.41016 45.354327,68.031492 0 0 1 3.86718,-0.29102 45.35433,68.031491 0 0 1 2.76367,0.20704 45.354327,68.031492 0 0 1 2.41211,0.27929 45.35433,68.031491 0 0 1 1.88672,0.42774 45.354327,68.031492 0 0 1 2.66602,0.71679 45.35433,68.031491 0 0 1 1.54101,0.58985 45.354327,68.031492 0 0 1 2.91407,1.24414 45.35433,68.031491 0 0 1 1.19726,0.65625 45.354327,68.031492 0 0 1 3.09375,1.83789 45.35433,68.031491 0 0 1 0.92383,0.66797 45.354327,68.031492 0 0 1 3.17188,2.46094 45.35433,68.031491 0 0 1 0.66601,0.61132 45.354327,68.031492 0 0 1 3.20117,3.12696 45.35433,68.031491 0 0 1 0.41992,0.47851 45.354327,68.031492 0 0 1 3.17383,3.82813 45.35433,68.031491 0 0 1 0.21289,0.29492 45.354327,68.031492 0 0 1 3.05078,4.5 45.35433,68.031491 0 0 1 0.10157,0.17383 45.354327,68.031492 0 0 1 11.43554,36.1875 l -17.35156,10.01758 17.69922,4.74218 a 45.354327,68.031492 0 0 1 -0.0859,1.30469 45.35433,68.031491 0 0 1 -0.17578,2.0625 l -17.31445,4.64063 15.26172,8.8125 a 45.35433,68.031491 0 0 1 -0.082,0.36523 45.354327,68.031492 0 0 1 -1.09375,4.33984 45.35433,68.031491 0 0 1 -0.0312,0.10547 45.354327,68.031492 0 0 1 -1.93946,6.04688 98.267713,98.267713 0 0 1 -0.75586,1.97656 45.35433,68.031491 0 0 1 -0.39648,0.96875 45.35433,68.031491 0 0 1 -0.0332,0.082 45.354327,68.031492 0 0 1 -0.92188,2.19531 45.354327,68.031492 0 0 1 -0.0117,0.0234 98.267713,98.267713 0 0 1 -0.35351,0.74024 45.354327,68.031492 0 0 1 -1.72461,3.61523 98.267713,98.267713 0 0 1 -4.58594,8.54102 98.267712,98.267712 0 0 1 -0.21875,0.35156 98.267713,98.267713 0 0 1 -5.06641,7.52148 98.267712,98.267712 0 0 1 -0.78906,1.02735 98.267713,98.267713 0 0 1 -5.21875,6.28711 98.267712,98.267712 0 0 1 -1.51367,1.61132 98.267713,98.267713 0 0 1 -5.16211,5.08594 98.267712,98.267712 0 0 1 -2.37891,2.07031 98.267713,98.267713 0 0 1 -4.90625,3.95118 98.267712,98.267712 0 0 1 -3.33789,2.36523 98.267713,98.267713 0 0 1 -6.12304,3.99219 98.267712,98.267712 0 0 1 -6.41407,3.28711 98.267713,98.267713 0 0 1 -4.5039,2.04687 98.267712,98.267712 0 0 1 -4.54688,1.78125 98.267713,98.267713 0 0 1 -4.64648,1.57422 98.267712,98.267712 0 0 1 -4.7461,1.33203 98.267713,98.267713 0 0 1 -4.76367,1.0957 98.267712,98.267712 0 0 1 -4.8457,0.85157 98.267713,98.267713 0 0 1 -4.86719,0.61719 98.267712,98.267712 0 0 1 -4.88867,0.36132 98.267713,98.267713 0 0 1 -4.91211,0.13086 98.267712,98.267712 0 0 1 -4.91016,-0.13086 98.267713,98.267713 0 0 1 -4.88867,-0.36132 98.267712,98.267712 0 0 1 -4.86719,-0.61719 98.267713,98.267713 0 0 1 -4.8457,-0.85157 98.267712,98.267712 0 0 1 -4.76367,-1.0957 98.267713,98.267713 0 0 1 -4.74609,-1.33203 98.267712,98.267712 0 0 1 -4.64649,-1.57422 98.267713,98.267713 0 0 1 -4.54687,-1.78125 98.267712,98.267712 0 0 1 -4.50391,-2.04687 98.267713,98.267713 0 0 1 -6.41406,-3.28711 98.267712,98.267712 0 0 1 -6.12305,-3.99219 98.267713,98.267713 0 0 1 -3.33789,-2.36523 98.267712,98.267712 0 0 1 -4.90625,-3.95118 98.267713,98.267713 0 0 1 -2.37891,-2.07031 98.267712,98.267712 0 0 1 -5.16211,-5.08594 98.267713,98.267713 0 0 1 -1.51367,-1.61132 98.267712,98.267712 0 0 1 -5.21875,-6.28711 98.267713,98.267713 0 0 1 -0.78906,-1.02735 98.267712,98.267712 0 0 1 -5.06641,-7.52148 98.267713,98.267713 0 0 1 -0.21875,-0.35156 98.267712,98.267712 0 0 1 -4.58593,-8.54102 45.354326,68.031491 0 0 1 -1.72461,-3.61523 98.267712,98.267712 0 0 1 -0.35352,-0.74024 45.354326,68.031491 0 0 1 -0.01,-0.0215 45.354326,68.031491 0 0 1 -1,-2.38282 45.354331,68.031492 0 0 1 -0.33399,-0.82031 98.267712,98.267712 0 0 1 -0.77344,-2.01953 45.354326,68.031491 0 0 1 -1.96484,-6.12891 45.354326,68.031491 0 0 1 -1.11523,-4.42578 45.354331,68.031492 0 0 1 -0.0684,-0.30273 l 15.26367,-8.8125 -17.31445,-4.64258 a 45.354331,68.031492 0 0 1 -0.16993,-1.97266 45.354326,68.031491 0 0 1 -0.0918,-1.39257 l 17.69922,-4.74219 -17.35157,-10.01758 a 45.354326,68.031491 0 0 1 11.45313,-36.22266 45.354331,68.031492 0 0 1 0.0742,-0.12695 45.354326,68.031491 0 0 1 3.06054,-4.51367 45.354331,68.031492 0 0 1 0.21094,-0.29492 45.354326,68.031491 0 0 1 3.20117,-3.85938 45.354331,68.031492 0 0 1 0.38086,-0.43359 45.354326,68.031491 0 0 1 3.2461,-3.16992 45.354331,68.031492 0 0 1 0.62304,-0.57227 45.354326,68.031491 0 0 1 3.21289,-2.49219 45.354331,68.031492 0 0 1 0.88282,-0.64062 45.354326,68.031491 0 0 1 3.1289,-1.85742 45.354331,68.031492 0 0 1 1.16406,-0.63867 45.354326,68.031491 0 0 1 2.97461,-1.26758 45.354331,68.031492 0 0 1 1.4668,-0.5625 45.354326,68.031491 0 0 1 2.74609,-0.73828 45.354331,68.031492 0 0 1 1.8086,-0.41016 45.354326,68.031491 0 0 1 2.48242,-0.28711 45.354331,68.031492 0 0 1 2.71289,-0.20313 z m -34.51172,112.14454 a 45.354331,68.031492 0 0 0 0.29688,0.47656 45.354331,68.031492 0 0 1 -0.29688,-0.47656 z m 174.84961,0 a 45.35433,68.031491 0 0 1 -0.29687,0.47656 45.35433,68.031491 0 0 0 0.29687,-0.47656 z m -171.74023,4.94922 a 45.354331,68.031492 0 0 0 0.34375,0.45507 45.354331,68.031492 0 0 1 -0.34375,-0.45507 z m 168.63086,0 a 45.35433,68.031491 0 0 1 -0.34375,0.45507 45.35433,68.031491 0 0 0 0.34375,-0.45507 z m -165.21485,4.44921 a 45.354331,68.031492 0 0 0 0.50391,0.54102 45.354331,68.031492 0 0 1 -0.50391,-0.54102 z m 161.79883,0 a 45.35433,68.031491 0 0 1 -0.50391,0.54102 45.35433,68.031491 0 0 0 0.50391,-0.54102 z m -158.11523,3.90821 a 45.354331,68.031492 0 0 0 0.77929,0.67187 45.354331,68.031492 0 0 1 -0.77929,-0.67187 z m 154.43164,0 a 45.35433,68.031491 0 0 1 -0.7793,0.67187 45.35433,68.031491 0 0 0 0.7793,-0.67187 z m -150.49024,3.35351 a 45.354331,68.031492 0 0 0 0.93164,0.625 45.354331,68.031492 0 0 1 -0.93164,-0.625 z m 146.54883,0 a 45.35433,68.031491 0 0 1 -0.93164,0.625 45.35433,68.031491 0 0 0 0.93164,-0.625 z m -142.42773,2.73242 a 45.354331,68.031492 0 0 0 1.33984,0.66797 45.354331,68.031492 0 0 1 -1.33984,-0.66797 z m 138.30664,0 a 45.35433,68.031491 0 0 1 -1.33985,0.66797 45.35433,68.031491 0 0 0 1.33985,-0.66797 z m -134.00977,2.11133 a 45.354331,68.031492 0 0 0 1.61524,0.54297 45.354331,68.031492 0 0 1 -1.61524,-0.54297 z m 129.71289,0 a 45.35433,68.031491 0 0 1 -1.61523,0.54297 45.35433,68.031491 0 0 0 1.61523,-0.54297 z m -125.31054,1.45508 a 45.354331,68.031492 0 0 0 1.9375,0.35352 45.354331,68.031492 0 0 1 -1.9375,-0.35352 z m 120.9082,0 a 45.35433,68.031491 0 0 1 -1.9375,0.35352 45.35433,68.031491 0 0 0 1.9375,-0.35352 z m -116.38281,0.79883 a 45.354331,68.031492 0 0 0 3.01562,0.16015 45.354331,68.031492 0 0 1 -3.01562,-0.16015 z m 111.85742,0 a 45.35433,68.031491 0 0 1 -3.01563,0.16015 45.35433,68.031491 0 0 0 3.01563,-0.16015 z"
         style="opacity:1;fill:#30c5ff;fill-opacity:1;stroke:none;stroke-width:1.99999988;stroke-miterlimit:4;stroke-dasharray:none;stroke-opacity:1"
         inkscape:connector-curvature="0" />
      <circle
         r="4"
         cy="118.61567"
         cx="74.867119"
         id="path865"
         style="opacity:1;fill:#30c5ff;fill-opacity:1;stroke:none;stroke-width:0.52916664;stroke-miterlimit:4;stroke-dasharray:none;stroke-opacity:1" />
      <circle
         style="opacity:1;fill:#30c5ff;fill-opacity:1;stroke:none;stroke-width:0.52916664;stroke-miterlimit:4;stroke-dasharray:none;stroke-opacity:1"
         id="circle867"
         cx="102.86712"
         cy="118.61567"
         r="4" />
      <path
         id="rect869"
         transform="scale(0.26458333)"
         d="m 305.9707,485.91211 c -0.11135,1.08989 0.23563,2.21805 1.07422,3.05664 l 25.96875,25.96875 c 1.48058,1.48058 3.86512,1.48058 5.34571,0 l 26.34765,-26.34766 c 0.74178,-0.74177 1.11282,-1.70967 1.11133,-2.67773 z"
         style="opacity:1;fill:#30c5ff;fill-opacity:1;stroke:none;stroke-width:1.99999988;stroke-miterlimit:4;stroke-dasharray:none;stroke-opacity:1"
         inkscape:connector-curvature="0" />
    </g>
    <path
       style="color:#000000;font-style:normal;font-variant:normal;font-weight:normal;font-stretch:normal;font-size:medium;line-height:normal;font-family:sans-serif;font-variant-ligatures:normal;font-variant-position:normal;font-variant-caps:normal;font-variant-numeric:normal;font-variant-alternates:normal;font-feature-settings:normal;text-indent:0;text-align:start;text-decoration:none;text-decoration-line:none;text-decoration-style:solid;text-decoration-color:#000000;letter-spacing:normal;word-spacing:normal;text-transform:none;writing-mode:lr-tb;direction:ltr;text-orientation:mixed;dominant-baseline:auto;baseline-shift:baseline;text-anchor:start;white-space:normal;shape-padding:0;clip-rule:nonzero;display:inline;overflow:visible;visibility:visible;opacity:1;isolation:auto;mix-blend-mode:normal;color-interpolation:sRGB;color-interpolation-filters:linearRGB;solid-color:#000000;solid-opacity:1;vector-effect:none;fill:#30c5ff;fill-opacity:1;fill-rule:nonzero;stroke:none;stroke-width:19.79999924;stroke-linecap:butt;stroke-linejoin:miter;stroke-miterlimit:4;stroke-dasharray:none;stroke-dashoffset:0;stroke-opacity:1;color-rendering:auto;image-rendering:auto;shape-rendering:auto;text-rendering:auto;enable-background:accumulate"
       d="m 52.196342,151.61341 -76.215967,121.97112 0.02115,0.0133 h 23.31823613 l 52.87658487,-84.61946 52.788244,84.47996 52.78859,-84.47996 52.87625,84.61946 h 23.10678 l 0.17359,-0.10846 -76.15662,-121.87597 -52.78859,84.47996 z"
       id="path912"
       inkscape:connector-curvature="0" />
  </g>
</svg>
